<svg width="45" height="45" viewBox="0 0 45 45" xmlns="http://www.w3.org/2000/svg">
<path d="M33.75 7.5H31.875V5.625C31.875 5.12772 31.6775 4.65081 31.3258 4.29917C30.9742 3.94754 30.4973 3.75 30 3.75C29.5027 3.75 29.0258 3.94754 28.6742 4.29917C28.3225 4.65081 28.125 5.12772 28.125 5.625V7.5H16.875V5.625C16.875 5.12772 16.6775 4.65081 16.3258 4.29917C15.9742 3.94754 15.4973 3.75 15 3.75C14.5027 3.75 14.0258 3.94754 13.6742 4.29917C13.3225 4.65081 13.125 5.12772 13.125 5.625V7.5H11.25C9.75816 7.5 8.32742 8.09263 7.27252 9.14752C6.21763 10.2024 5.625 11.6332 5.625 13.125V35.625C5.625 37.1168 6.21763 38.5476 7.27252 39.6025C8.32742 40.6574 9.75816 41.25 11.25 41.25H33.75C35.2418 41.25 36.6726 40.6574 37.7275 39.6025C38.7824 38.5476 39.375 37.1168 39.375 35.625V13.125C39.375 11.6332 38.7824 10.2024 37.7275 9.14752C36.6726 8.09263 35.2418 7.5 33.75 7.5V7.5ZM11.25 11.25H13.125V13.125C13.125 13.6223 13.3225 14.0992 13.6742 14.4508C14.0258 14.8025 14.5027 15 15 15C15.4973 15 15.9742 14.8025 16.3258 14.4508C16.6775 14.0992 16.875 13.6223 16.875 13.125V11.25H28.125V13.125C28.125 13.6223 28.3225 14.0992 28.6742 14.4508C29.0258 14.8025 29.5027 15 30 15C30.4973 15 30.9742 14.8025 31.3258 14.4508C31.6775 14.0992 31.875 13.6223 31.875 13.125V11.25H33.75C34.2473 11.25 34.7242 11.4475 35.0758 11.7992C35.4275 12.1508 35.625 12.6277 35.625 13.125V20.625H9.375V13.125C9.375 12.6277 9.57254 12.1508 9.92418 11.7992C10.2758 11.4475 10.7527 11.25 11.25 11.25V11.25ZM33.75 37.5H11.25C10.7527 37.5 10.2758 37.3025 9.92418 36.9508C9.57254 36.5992 9.375 36.1223 9.375 35.625V24.375H35.625V35.625C35.625 36.1223 35.4275 36.5992 35.0758 36.9508C34.7242 37.3025 34.2473 37.5 33.75 37.5Z" fill='current'/>
<path d="M15 31.875C16.0355 31.875 16.875 31.0355 16.875 30C16.875 28.9645 16.0355 28.125 15 28.125C13.9645 28.125 13.125 28.9645 13.125 30C13.125 31.0355 13.9645 31.875 15 31.875Z" fill='current'/>
<path d="M30 28.125H22.5C22.0027 28.125 21.5258 28.3225 21.1742 28.6742C20.8225 29.0258 20.625 29.5027 20.625 30C20.625 30.4973 20.8225 30.9742 21.1742 31.3258C21.5258 31.6775 22.0027 31.875 22.5 31.875H30C30.4973 31.875 30.9742 31.6775 31.3258 31.3258C31.6775 30.9742 31.875 30.4973 31.875 30C31.875 29.5027 31.6775 29.0258 31.3258 28.6742C30.9742 28.3225 30.4973 28.125 30 28.125Z" fill='current'/>
</svg>
