<svg width="22" height="22" viewBox="0 0 22 22" fill="none" xmlns="http://www.w3.org/2000/svg">
<path d="M11 1.83325C9.18702 1.83325 7.41474 2.37087 5.90729 3.37811C4.39984 4.38536 3.22492 5.817 2.53112 7.49199C1.83732 9.16698 1.65578 11.0101 2.00948 12.7882C2.36318 14.5664 3.23622 16.1998 4.5182 17.4817C5.80018 18.7637 7.43353 19.6368 9.21169 19.9905C10.9898 20.3442 12.833 20.1626 14.5079 19.4688C16.1829 18.775 17.6146 17.6001 18.6218 16.0926C19.6291 14.5852 20.1667 12.8129 20.1667 10.9999C20.1667 9.79614 19.9296 8.60414 19.4689 7.49199C19.0082 6.37984 18.333 5.36931 17.4818 4.51811C16.6306 3.6669 15.6201 2.99169 14.5079 2.53102C13.3958 2.07035 12.2038 1.83325 11 1.83325ZM11 18.3333C9.54962 18.3333 8.13179 17.9032 6.92583 17.0974C5.71987 16.2916 4.77994 15.1463 4.2249 13.8063C3.66986 12.4663 3.52463 10.9918 3.80759 9.56926C4.09055 8.14673 4.78898 6.84005 5.81456 5.81447C6.84015 4.78888 8.14683 4.09045 9.56935 3.80749C10.9919 3.52454 12.4664 3.66976 13.8064 4.2248C15.1464 4.77985 16.2917 5.71978 17.0975 6.92574C17.9033 8.1317 18.3333 9.54952 18.3333 10.9999C18.3333 12.9448 17.5607 14.8101 16.1855 16.1854C14.8102 17.5606 12.9449 18.3333 11 18.3333Z" fill="#C0C0C0"/>
<path d="M14.6667 10.0832H11.9167V7.33317C11.9167 7.09006 11.8201 6.8569 11.6482 6.68499C11.4763 6.51308 11.2432 6.4165 11 6.4165C10.7569 6.4165 10.5238 6.51308 10.3519 6.68499C10.18 6.8569 10.0834 7.09006 10.0834 7.33317V10.9998C10.0834 11.243 10.18 11.4761 10.3519 11.648C10.5238 11.8199 10.7569 11.9165 11 11.9165H14.6667C14.9098 11.9165 15.143 11.8199 15.3149 11.648C15.4868 11.4761 15.5834 11.243 15.5834 10.9998C15.5834 10.7567 15.4868 10.5236 15.3149 10.3517C15.143 10.1797 14.9098 10.0832 14.6667 10.0832Z" fill="#C0C0C0"/>
</svg>
