<svg width="11" height="19" viewBox="0 0 11 19" fill="none" xmlns="http://www.w3.org/2000/svg">
<path d="M8.5925 18.9118C8.38086 18.9125 8.17175 18.8683 7.98053 18.7823C7.78931 18.6964 7.62084 18.571 7.4875 18.4153L0.645006 10.3628C0.43664 10.1227 0.322731 9.82146 0.322731 9.5106C0.322731 9.19974 0.43664 8.89852 0.645006 8.65838L7.72834 0.605922C7.9688 0.331848 8.31434 0.159492 8.68895 0.126773C9.06355 0.0940533 9.43653 0.20365 9.72584 0.431452C10.0151 0.659254 10.1971 0.986602 10.2316 1.34148C10.2662 1.69636 10.1505 2.0497 9.91 2.32378L3.5775 9.51731L9.6975 16.7108C9.87074 16.9078 9.98078 17.1477 10.0146 17.4021C10.0484 17.6565 10.0046 17.9147 9.88839 18.1463C9.77215 18.3778 9.58832 18.573 9.35867 18.7087C9.12901 18.8443 8.86314 18.9148 8.5925 18.9118Z" fill="#C7C7C7"/>
</svg>
