<svg width="25" height="37" viewBox="0 0 25 37" fill="none" xmlns="http://www.w3.org/2000/svg">
<path d="M20.8854 16.9297H4.11458C3.56805 16.9297 3.125 17.5843 3.125 18.3918V18.5457C3.125 19.3532 3.56805 20.0078 4.11458 20.0078H20.8854C21.4319 20.0078 21.875 19.3532 21.875 18.5457V18.3918C21.875 17.5843 21.4319 16.9297 20.8854 16.9297Z" fill="#FF9136"/>
<path d="M20.8854 24.6249H4.11458C3.56805 24.6249 3.125 25.2795 3.125 26.087V26.2409C3.125 27.0484 3.56805 27.703 4.11458 27.703H20.8854C21.4319 27.703 21.875 27.0484 21.875 26.2409V26.087C21.875 25.2795 21.4319 24.6249 20.8854 24.6249Z" fill="#FF9136"/>
<path d="M20.8854 9.23438H4.11458C3.56805 9.23438 3.125 9.88898 3.125 10.6965V10.8504C3.125 11.6579 3.56805 12.3125 4.11458 12.3125H20.8854C21.4319 12.3125 21.875 11.6579 21.875 10.8504V10.6965C21.875 9.88898 21.4319 9.23438 20.8854 9.23438Z" fill="#FF9136"/>
</svg>
