<svg width="300" height="90" viewBox="0 0 246 72" fill="none" xmlns="http://www.w3.org/2000/svg">
<path d="M153.12 21.92V50H146.28V33.16L140 50H134.48L128.16 33.12V50H121.32V21.92H129.4L137.28 41.36L145.08 21.92H153.12ZM181.079 38.48C181.079 39.12 181.039 39.7867 180.959 40.48H165.479C165.585 41.8667 166.025 42.9333 166.799 43.68C167.599 44.4 168.572 44.76 169.719 44.76C171.425 44.76 172.612 44.04 173.279 42.6H180.559C180.185 44.0667 179.505 45.3867 178.519 46.56C177.559 47.7333 176.345 48.6533 174.879 49.32C173.412 49.9867 171.772 50.32 169.959 50.32C167.772 50.32 165.825 49.8533 164.119 48.92C162.412 47.9867 161.079 46.6533 160.119 44.92C159.159 43.1867 158.679 41.16 158.679 38.84C158.679 36.52 159.145 34.4933 160.079 32.76C161.039 31.0267 162.372 29.6933 164.079 28.76C165.785 27.8267 167.745 27.36 169.959 27.36C172.119 27.36 174.039 27.8133 175.719 28.72C177.399 29.6267 178.705 30.92 179.639 32.6C180.599 34.28 181.079 36.24 181.079 38.48ZM174.079 36.68C174.079 35.5067 173.679 34.5733 172.879 33.88C172.079 33.1867 171.079 32.84 169.879 32.84C168.732 32.84 167.759 33.1733 166.959 33.84C166.185 34.5067 165.705 35.4533 165.519 36.68H174.079ZM218.727 27.68L212.687 50H205.127L201.607 35.52L197.967 50H190.447L184.367 27.68H191.207L194.367 43.64L198.127 27.68H205.367L209.167 43.56L212.287 27.68H218.727ZM232.415 50.32C230.469 50.32 228.735 49.9867 227.215 49.32C225.695 48.6533 224.495 47.7467 223.615 46.6C222.735 45.4267 222.242 44.12 222.135 42.68H228.895C228.975 43.4533 229.335 44.08 229.975 44.56C230.615 45.04 231.402 45.28 232.335 45.28C233.189 45.28 233.842 45.12 234.295 44.8C234.775 44.4533 235.015 44.0133 235.015 43.48C235.015 42.84 234.682 42.3733 234.015 42.08C233.349 41.76 232.269 41.4133 230.775 41.04C229.175 40.6667 227.842 40.28 226.775 39.88C225.709 39.4533 224.789 38.8 224.015 37.92C223.242 37.0133 222.855 35.8 222.855 34.28C222.855 33 223.202 31.84 223.895 30.8C224.615 29.7333 225.655 28.8933 227.015 28.28C228.402 27.6667 230.042 27.36 231.935 27.36C234.735 27.36 236.935 28.0533 238.535 29.44C240.162 30.8267 241.095 32.6667 241.335 34.96H235.015C234.909 34.1867 234.562 33.5733 233.975 33.12C233.415 32.6667 232.669 32.44 231.735 32.44C230.935 32.44 230.322 32.6 229.895 32.92C229.469 33.2133 229.255 33.6267 229.255 34.16C229.255 34.8 229.589 35.28 230.255 35.6C230.949 35.92 232.015 36.24 233.455 36.56C235.109 36.9867 236.455 37.4133 237.495 37.84C238.535 38.24 239.442 38.9067 240.215 39.84C241.015 40.7467 241.429 41.9733 241.455 43.52C241.455 44.8267 241.082 46 240.335 47.04C239.615 48.0533 238.562 48.8533 237.175 49.44C235.815 50.0267 234.229 50.32 232.415 50.32Z" fill="#FF9136"/>
<path d="M61.5336 7.07106C65.4389 3.16582 71.7705 3.16583 75.6757 7.07107L97.5336 28.9289C101.439 32.8342 101.439 39.1658 97.5336 43.0711L75.6757 64.9289C71.7705 68.8342 65.4389 68.8342 61.5336 64.9289L39.6757 43.0711C35.7705 39.1658 35.7705 32.8342 39.6757 28.9289L61.5336 7.07106Z" fill="#FF9136"/>
<path d="M28.9289 7.07106C32.8342 3.16582 39.1658 3.16583 43.0711 7.07107L64.9289 28.9289C68.8342 32.8342 68.8342 39.1658 64.9289 43.0711L43.0711 64.9289C39.1658 68.8342 32.8342 68.8342 28.9289 64.9289L7.07106 43.0711C3.16582 39.1658 3.16582 32.8342 7.07107 28.9289L28.9289 7.07106Z" fill="#FFBD29"/>
<rect x="71.0246" y="36" width="26.4923" height="26.4923" transform="rotate(135 71.0246 36)" fill="white" stroke="white"/>
</svg>
