<svg width="279" height="72" viewBox="0 0 279 72" fill="none" xmlns="http://www.w3.org/2000/svg">
<path d="M155.62 21.92V50H148.78V33.16L142.5 50H136.98L130.66 33.12V50H123.82V21.92H131.9L139.78 41.36L147.58 21.92H155.62ZM183.579 38.48C183.579 39.12 183.539 39.7867 183.459 40.48H167.979C168.085 41.8667 168.525 42.9333 169.299 43.68C170.099 44.4 171.072 44.76 172.219 44.76C173.925 44.76 175.112 44.04 175.779 42.6H183.059C182.685 44.0667 182.005 45.3867 181.019 46.56C180.059 47.7333 178.845 48.6533 177.379 49.32C175.912 49.9867 174.272 50.32 172.459 50.32C170.272 50.32 168.325 49.8533 166.619 48.92C164.912 47.9867 163.579 46.6533 162.619 44.92C161.659 43.1867 161.179 41.16 161.179 38.84C161.179 36.52 161.645 34.4933 162.579 32.76C163.539 31.0267 164.872 29.6933 166.579 28.76C168.285 27.8267 170.245 27.36 172.459 27.36C174.619 27.36 176.539 27.8133 178.219 28.72C179.899 29.6267 181.205 30.92 182.139 32.6C183.099 34.28 183.579 36.24 183.579 38.48ZM176.579 36.68C176.579 35.5067 176.179 34.5733 175.379 33.88C174.579 33.1867 173.579 32.84 172.379 32.84C171.232 32.84 170.259 33.1733 169.459 33.84C168.685 34.5067 168.205 35.4533 168.019 36.68H176.579ZM221.227 27.68L215.187 50H207.627L204.107 35.52L200.467 50H192.947L186.867 27.68H193.707L196.867 43.64L200.627 27.68H207.867L211.667 43.56L214.787 27.68H221.227ZM234.915 50.32C232.969 50.32 231.235 49.9867 229.715 49.32C228.195 48.6533 226.995 47.7467 226.115 46.6C225.235 45.4267 224.742 44.12 224.635 42.68H231.395C231.475 43.4533 231.835 44.08 232.475 44.56C233.115 45.04 233.902 45.28 234.835 45.28C235.689 45.28 236.342 45.12 236.795 44.8C237.275 44.4533 237.515 44.0133 237.515 43.48C237.515 42.84 237.182 42.3733 236.515 42.08C235.849 41.76 234.769 41.4133 233.275 41.04C231.675 40.6667 230.342 40.28 229.275 39.88C228.209 39.4533 227.289 38.8 226.515 37.92C225.742 37.0133 225.355 35.8 225.355 34.28C225.355 33 225.702 31.84 226.395 30.8C227.115 29.7333 228.155 28.8933 229.515 28.28C230.902 27.6667 232.542 27.36 234.435 27.36C237.235 27.36 239.435 28.0533 241.035 29.44C242.662 30.8267 243.595 32.6667 243.835 34.96H237.515C237.409 34.1867 237.062 33.5733 236.475 33.12C235.915 32.6667 235.169 32.44 234.235 32.44C233.435 32.44 232.822 32.6 232.395 32.92C231.969 33.2133 231.755 33.6267 231.755 34.16C231.755 34.8 232.089 35.28 232.755 35.6C233.449 35.92 234.515 36.24 235.955 36.56C237.609 36.9867 238.955 37.4133 239.995 37.84C241.035 38.24 241.942 38.9067 242.715 39.84C243.515 40.7467 243.929 41.9733 243.955 43.52C243.955 44.8267 243.582 46 242.835 47.04C242.115 48.0533 241.062 48.8533 239.675 49.44C238.315 50.0267 236.729 50.32 234.915 50.32Z" fill="#FF9136"/>
<path d="M61.5336 7.07106C65.4389 3.16582 71.7705 3.16583 75.6757 7.07107L97.5336 28.9289C101.439 32.8342 101.439 39.1658 97.5336 43.0711L75.6757 64.9289C71.7705 68.8342 65.4388 68.8342 61.5336 64.9289L39.6757 43.0711C35.7705 39.1658 35.7705 32.8342 39.6757 28.9289L61.5336 7.07106Z" fill="#FF9136"/>
<path d="M28.9289 7.07106C32.8342 3.16582 39.1658 3.16583 43.0711 7.07107L64.9289 28.9289C68.8342 32.8342 68.8342 39.1658 64.9289 43.0711L43.0711 64.9289C39.1658 68.8342 32.8342 68.8342 28.9289 64.9289L7.07106 43.0711C3.16582 39.1658 3.16583 32.8342 7.07107 28.9289L28.9289 7.07106Z" fill="#FFBD29"/>
<rect x="71.0246" y="36" width="26.4923" height="26.4923" transform="rotate(135 71.0246 36)" fill="white" stroke="white"/>
</svg>
