<svg width="127" height="28" viewBox="0 0 127 28" fill="none" xmlns="http://www.w3.org/2000/svg">
<path d="M65.7719 5.152V22H61.6679V11.896L57.8999 22H54.5879L50.7959 11.872V22H46.6919V5.152H51.5399L56.2679 16.816L60.9479 5.152H65.7719ZM82.5472 15.088C82.5472 15.472 82.5232 15.872 82.4752 16.288H73.1872C73.2512 17.12 73.5152 17.76 73.9792 18.208C74.4592 18.64 75.0432 18.856 75.7312 18.856C76.7552 18.856 77.4672 18.424 77.8672 17.56H82.2352C82.0112 18.44 81.6032 19.232 81.0112 19.936C80.4352 20.64 79.7072 21.192 78.8272 21.592C77.9472 21.992 76.9632 22.192 75.8752 22.192C74.5632 22.192 73.3952 21.912 72.3712 21.352C71.3472 20.792 70.5472 19.992 69.9712 18.952C69.3952 17.912 69.1072 16.696 69.1072 15.304C69.1072 13.912 69.3872 12.696 69.9472 11.656C70.5232 10.616 71.3232 9.816 72.3472 9.256C73.3712 8.696 74.5472 8.416 75.8752 8.416C77.1712 8.416 78.3232 8.688 79.3312 9.232C80.3392 9.776 81.1232 10.552 81.6832 11.56C82.2592 12.568 82.5472 13.744 82.5472 15.088ZM78.3472 14.008C78.3472 13.304 78.1072 12.744 77.6272 12.328C77.1472 11.912 76.5472 11.704 75.8272 11.704C75.1392 11.704 74.5552 11.904 74.0752 12.304C73.6112 12.704 73.3232 13.272 73.2112 14.008H78.3472ZM105.136 8.608L101.512 22H96.9762L94.8642 13.312L92.6802 22H88.1682L84.5202 8.608H88.6242L90.5202 18.184L92.7762 8.608H97.1202L99.4002 18.136L101.272 8.608H105.136ZM113.349 22.192C112.181 22.192 111.141 21.992 110.229 21.592C109.317 21.192 108.597 20.648 108.069 19.96C107.541 19.256 107.245 18.472 107.181 17.608H111.237C111.285 18.072 111.501 18.448 111.885 18.736C112.269 19.024 112.741 19.168 113.301 19.168C113.813 19.168 114.205 19.072 114.477 18.88C114.765 18.672 114.909 18.408 114.909 18.088C114.909 17.704 114.709 17.424 114.309 17.248C113.909 17.056 113.261 16.848 112.365 16.624C111.405 16.4 110.605 16.168 109.965 15.928C109.325 15.672 108.773 15.28 108.309 14.752C107.845 14.208 107.613 13.48 107.613 12.568C107.613 11.8 107.821 11.104 108.237 10.48C108.669 9.84 109.293 9.336 110.109 8.968C110.941 8.6 111.925 8.416 113.061 8.416C114.741 8.416 116.061 8.832 117.021 9.664C117.997 10.496 118.557 11.6 118.701 12.976H114.909C114.845 12.512 114.637 12.144 114.285 11.872C113.949 11.6 113.501 11.464 112.941 11.464C112.461 11.464 112.093 11.56 111.837 11.752C111.581 11.928 111.453 12.176 111.453 12.496C111.453 12.88 111.653 13.168 112.053 13.36C112.469 13.552 113.109 13.744 113.973 13.936C114.965 14.192 115.773 14.448 116.397 14.704C117.021 14.944 117.565 15.344 118.029 15.904C118.509 16.448 118.757 17.184 118.773 18.112C118.773 18.896 118.549 19.6 118.101 20.224C117.669 20.832 117.037 21.312 116.205 21.664C115.389 22.016 114.437 22.192 113.349 22.192Z" fill="#FF9136"/>
<rect x="26.6796" width="19.799" height="19.799" rx="5" transform="rotate(45 26.6796 0)" fill="#FF9136"/>
<rect x="14" width="19.799" height="19.799" rx="5" transform="rotate(45 14 0)" fill="#FFBD29"/>
<rect x="27.1886" y="14" width="9.69145" height="9.69145" transform="rotate(135 27.1886 14)" fill="white" stroke="white"/>
</svg>
