<svg width="45" height="45" viewBox="0 0 45 45" xmlns="http://www.w3.org/2000/svg">
<path d="M18.75 26.25H26.25V39.375H18.75V26.25Z" fill='current'/>
<path d="M38.2875 19.0875L23.8312 4.3125C23.6569 4.13675 23.4495 3.99727 23.2211 3.90207C22.9926 3.80688 22.7475 3.75787 22.5 3.75787C22.2524 3.75787 22.0074 3.80688 21.7789 3.90207C21.5504 3.99727 21.343 4.13675 21.1687 4.3125L6.71247 19.1062C6.36267 19.4589 6.0864 19.8775 5.89971 20.3378C5.71302 20.798 5.61964 21.2908 5.62497 21.7875V37.5C5.62352 38.4598 5.99017 39.3837 6.64942 40.0813C7.30868 40.7789 8.21034 41.1972 9.16872 41.25H15V24.375C15 23.8777 15.1975 23.4008 15.5491 23.0492C15.9008 22.6975 16.3777 22.5 16.875 22.5H28.125C28.6223 22.5 29.0992 22.6975 29.4508 23.0492C29.8024 23.4008 30 23.8777 30 24.375V41.25H35.8312C36.7896 41.1972 37.6913 40.7789 38.3505 40.0813C39.0098 39.3837 39.3764 38.4598 39.375 37.5V21.7875C39.3765 20.7805 38.9865 19.8123 38.2875 19.0875V19.0875Z" fill='current'/>
</svg>
