<svg width="45" height="45" viewBox="0 0 45 45" fill="none" xmlns="http://www.w3.org/2000/svg">
<path d="M22.5 20.625C23.9834 20.625 25.4334 20.1851 26.6668 19.361C27.9001 18.5369 28.8614 17.3655 29.4291 15.9951C29.9968 14.6247 30.1453 13.1167 29.8559 11.6618C29.5665 10.2069 28.8522 8.87056 27.8033 7.82167C26.7544 6.77278 25.418 6.05847 23.9632 5.76908C22.5083 5.47969 21.0003 5.62822 19.6299 6.19588C18.2594 6.76353 17.0881 7.72483 16.264 8.9582C15.4399 10.1916 15 11.6416 15 13.125C15 15.1141 15.7902 17.0218 17.1967 18.4283C18.6032 19.8348 20.5109 20.625 22.5 20.625Z" fill="#C0C0C0"/>
<path d="M33.75 39.375C34.2473 39.375 34.7242 39.1774 35.0758 38.8258C35.4275 38.4742 35.625 37.9973 35.625 37.5C35.625 34.019 34.2422 30.6806 31.7808 28.2192C29.3194 25.7578 25.981 24.375 22.5 24.375C19.019 24.375 15.6806 25.7578 13.2192 28.2192C10.7578 30.6806 9.375 34.019 9.375 37.5C9.375 37.9973 9.57254 38.4742 9.92418 38.8258C10.2758 39.1774 10.7527 39.375 11.25 39.375H33.75Z" fill="#C0C0C0"/>
</svg>
