<svg width="45" height="45" viewBox="0 0 45 45" xmlns="http://www.w3.org/2000/svg">
<path d="M38.6625 7.91251C38.4447 7.7363 38.1901 7.61115 37.9176 7.54626C37.645 7.48136 37.3614 7.47837 37.0875 7.53751L22.5 10.8188L7.91252 7.50001C7.63431 7.43718 7.34544 7.43864 7.06789 7.50429C6.79034 7.56994 6.53142 7.69804 6.31084 7.87884C6.09026 8.05964 5.91383 8.28838 5.79499 8.54765C5.67614 8.80692 5.61801 9.08989 5.62502 9.37501V32.25C5.61442 32.6834 5.75436 33.1071 6.02102 33.449C6.28767 33.7909 6.66455 34.0298 7.08752 34.125L22.0875 37.5H22.5H22.9125L37.9125 34.125C38.3355 34.0298 38.7124 33.7909 38.979 33.449C39.2457 33.1071 39.3856 32.6834 39.375 32.25V9.37501C39.3737 9.09338 39.309 8.81566 39.1856 8.56247C39.0623 8.30928 38.8835 8.08713 38.6625 7.91251V7.91251ZM9.37502 11.7188L20.625 14.25V33.2813L9.37502 30.75V11.7188ZM35.625 30.75L24.375 33.2813V14.25L35.625 11.7188V30.75Z" fill='current'/>
</svg>
