<svg width="34" height="34" viewBox="0 0 34 34" fill="none" xmlns="http://www.w3.org/2000/svg">
<path d="M29.075 27.0815L24.3017 22.3223C25.8418 20.3602 26.6774 17.9374 26.6743 15.4431C26.6743 13.2218 26.0156 11.0503 24.7815 9.20332C23.5474 7.35634 21.7933 5.9168 19.7411 5.06673C17.6888 4.21666 15.4306 3.99424 13.2519 4.4276C11.0733 4.86097 9.07204 5.93064 7.50131 7.50137C5.93058 9.0721 4.8609 11.0733 4.42754 13.252C3.99418 15.4306 4.2166 17.6889 5.06667 19.7411C5.91674 21.7934 7.35628 23.5475 9.20326 24.7816C11.0502 26.0157 13.2217 26.6744 15.443 26.6744C17.9373 26.6775 20.3602 25.8419 22.3222 24.3018L27.0815 29.0751C27.212 29.2067 27.3673 29.3111 27.5383 29.3824C27.7094 29.4537 27.8929 29.4904 28.0783 29.4904C28.2636 29.4904 28.4471 29.4537 28.6182 29.3824C28.7893 29.3111 28.9445 29.2067 29.075 29.0751C29.2066 28.9446 29.3111 28.7893 29.3823 28.6182C29.4536 28.4472 29.4903 28.2637 29.4903 28.0783C29.4903 27.893 29.4536 27.7095 29.3823 27.5384C29.3111 27.3673 29.2066 27.2121 29.075 27.0815V27.0815ZM7.01956 15.4431C7.01956 13.7771 7.51359 12.1485 8.43917 10.7633C9.36476 9.37803 10.6803 8.29838 12.2195 7.66082C13.7587 7.02327 15.4524 6.85646 17.0864 7.18148C18.7204 7.5065 20.2213 8.30876 21.3993 9.4868C22.5774 10.6648 23.3796 12.1658 23.7047 13.7998C24.0297 15.4338 23.8629 17.1274 23.2253 18.6666C22.5878 20.2058 21.5081 21.5214 20.1229 22.447C18.7376 23.3726 17.109 23.8666 15.443 23.8666C13.209 23.8666 11.0665 22.9791 9.48674 21.3994C7.90703 19.8197 7.01956 17.6771 7.01956 15.4431Z" fill="#FF9136"/>
</svg>
