<svg width="35" height="35" viewBox="0 0 35 35" fill="none" xmlns="http://www.w3.org/2000/svg">
<path d="M10.4592 30.25C10.2087 30.2492 9.96255 30.1839 9.7446 30.0604C9.51933 29.9338 9.33176 29.7496 9.20108 29.5267C9.07039 29.3037 9.00129 29.0501 9.00085 28.7917V7.39792C8.98113 6.52338 9.30684 5.6763 9.90739 5.04026C10.5079 4.40423 11.3349 4.03047 12.2092 4H26.2092C27.0834 4.03047 27.9104 4.40423 28.511 5.04026C29.1115 5.6763 29.4372 6.52338 29.4175 7.39792V28.7917C29.416 29.0462 29.3479 29.2958 29.2199 29.5159C29.092 29.7359 28.9088 29.9186 28.6883 30.0458C28.4667 30.1738 28.2152 30.2412 27.9592 30.2412C27.7032 30.2412 27.4517 30.1738 27.23 30.0458L18.9613 25.3646L11.1883 30.0313C10.9689 30.1674 10.7173 30.2429 10.4592 30.25V30.25Z" fill="#D9D9D9"/>
</svg>
