<svg width="17" height="17" viewBox="0 0 17 17" fill="none" xmlns="http://www.w3.org/2000/svg">
<path d="M8.15818 14.2769C8.06871 14.2774 7.98001 14.2602 7.89718 14.2264C7.81435 14.1926 7.73901 14.1427 7.67548 14.0797L2.39305 8.79047C1.73044 8.12094 1.35876 7.217 1.35876 6.27502C1.35876 5.33305 1.73044 4.42911 2.39305 3.75958C3.06084 3.09367 3.96543 2.71973 4.90849 2.71973C5.85156 2.71973 6.75615 3.09367 7.42394 3.75958L8.15818 4.49382L8.89242 3.75958C9.56021 3.09367 10.4648 2.71973 11.4079 2.71973C12.3509 2.71973 13.2555 3.09367 13.9233 3.75958C14.5859 4.42911 14.9576 5.33305 14.9576 6.27502C14.9576 7.217 14.5859 8.12094 13.9233 8.79047L8.64087 14.0797C8.57735 14.1427 8.50201 14.1926 8.41918 14.2264C8.33635 14.2602 8.24765 14.2774 8.15818 14.2769Z" fill="#D9D9D9"/>
</svg>
