<svg width="30" height="30" viewBox="0 0 30 30" fill="none" xmlns="http://www.w3.org/2000/svg">
<path d="M22.0489 0C21.3722 0.037714 20.6955 0.113142 20.0564 0.339426C19.0414 0.716565 18.0639 1.28227 17.2368 2.11198C16.9989 2.26332 16.7979 2.46638 16.6487 2.70616C16.4995 2.94594 16.4059 3.2163 16.3749 3.49724C16.344 3.77818 16.3763 4.06252 16.4696 4.32922C16.563 4.59592 16.7149 4.83816 16.9141 5.03803C17.1133 5.23789 17.3548 5.39027 17.6206 5.48389C17.8865 5.57751 18.1699 5.60998 18.45 5.57889C18.73 5.54781 18.9995 5.45396 19.2385 5.30429C19.4776 5.15463 19.68 4.95297 19.8308 4.71424C20.2444 4.29939 20.7331 4.07311 21.2594 3.88454C22.5752 3.43197 24.1917 3.62054 25.2444 4.71424C26.7105 6.18509 26.7105 8.6365 25.2444 10.1451L19.6053 15.8021C17.9511 17.4616 16.5977 17.6124 15.6203 17.5747C14.6429 17.537 14.0789 17.0844 14.0789 17.0844C13.8617 16.9606 13.6223 16.8809 13.3744 16.8499C13.1265 16.8189 12.8749 16.8372 12.634 16.9038C12.3931 16.9703 12.1677 17.0838 11.9705 17.2377C11.7734 17.3917 11.6084 17.5831 11.485 17.801C11.3615 18.0189 11.2821 18.2591 11.2512 18.5078C11.2203 18.7565 11.2385 19.0089 11.3049 19.2505C11.3712 19.4922 11.4843 19.7183 11.6378 19.9161C11.7912 20.1139 11.982 20.2794 12.1992 20.4033C12.1992 20.4033 13.4774 21.233 15.3571 21.3461C17.2368 21.4592 19.8684 20.7427 22.1617 18.4044L27.8008 12.7473C30.7331 9.80563 30.7331 5.05367 27.8008 2.1497C26.7481 1.09371 25.5075 0.452568 24.1541 0.150856C23.4774 0 22.7256 0 22.0489 0.037714V0ZM14.5301 8.71192C12.6504 8.6365 10.0564 9.27763 7.83835 11.5405L2.19925 17.1976C-0.733083 20.1393 -0.733083 24.8912 2.19925 27.7952C4.30451 29.9072 7.31203 30.5106 9.94361 29.5677C10.9586 29.1906 11.9361 28.6249 12.7632 27.7952C13.0011 27.6439 13.2021 27.4408 13.3513 27.201C13.5005 26.9612 13.5941 26.6909 13.6251 26.4099C13.656 26.129 13.6237 25.8447 13.5304 25.578C13.437 25.3113 13.2851 25.069 13.0859 24.8691C12.8867 24.6693 12.6452 24.5169 12.3794 24.4233C12.1135 24.3297 11.8301 24.2972 11.55 24.3283C11.27 24.3594 11.0005 24.4532 10.7615 24.6029C10.5224 24.7525 10.32 24.9542 10.1692 25.1929C9.75564 25.6078 9.26692 25.8341 8.7406 26.0226C7.42481 26.4752 5.80827 26.2866 4.75564 25.1929C3.28947 23.7221 3.28947 21.2707 4.75564 19.7621L10.3947 14.105C11.8985 12.5965 13.2143 12.4079 14.2669 12.4456C15.3195 12.4833 16.0338 12.785 16.0338 12.785C16.2541 12.9508 16.508 13.0659 16.7775 13.1224C17.047 13.1788 17.3256 13.1752 17.5935 13.1117C17.8615 13.0483 18.1123 12.9265 18.3282 12.7551C18.5441 12.5837 18.7198 12.3668 18.8429 12.1198C18.966 11.8727 19.0336 11.6016 19.0407 11.3255C19.0479 11.0494 18.9945 10.775 18.8843 10.5219C18.7741 10.2688 18.6099 10.043 18.4032 9.86061C18.1964 9.67818 17.9523 9.54354 17.688 9.4662C17.688 9.4662 16.4098 8.71192 14.5301 8.6365V8.71192Z" fill="#0E0D0D"/>
</svg>
