<svg width="24" height="30" viewBox="0 0 24 30" fill="none" xmlns="http://www.w3.org/2000/svg">
<path d="M1.71514 30C1.42067 29.9991 1.1314 29.9245 0.875207 29.7833C0.61043 29.6386 0.389954 29.4281 0.236347 29.1733C0.0827392 28.9185 0.00151723 28.6287 0.000993805 28.3333V3.88333C-0.0221785 2.88386 0.360668 1.91577 1.06656 1.18887C1.77246 0.461973 2.74453 0.0348242 3.77211 0H20.2279C21.2555 0.0348242 22.2275 0.461973 22.9334 1.18887C23.6393 1.91577 24.0222 2.88386 23.999 3.88333V28.3333C23.9972 28.6242 23.9171 28.9095 23.7668 29.161C23.6164 29.4124 23.401 29.6212 23.1419 29.7667C22.8813 29.9129 22.5858 29.99 22.2849 29.99C21.984 29.99 21.6884 29.9129 21.4278 29.7667L11.7086 24.4167L2.57221 29.75C2.31432 29.9056 2.01855 29.9919 1.71514 30Z" fill="#FF9136"/>
</svg>
