<svg width="24" height="30" viewBox="0 0 20 30" fill="none" xmlns="http://www.w3.org/2000/svg">
<path d="M1.42108 30C1.1771 29.9991 0.93742 29.9245 0.725155 29.7833C0.505773 29.6386 0.323097 29.4281 0.195825 29.1733C0.0685537 28.9185 0.0012571 28.6287 0.000823419 28.3333V3.88333C-0.018376 2.88386 0.298832 1.91577 0.883702 1.18887C1.46857 0.461973 2.27398 0.0348242 3.12539 0H16.7598C17.6113 0.0348242 18.4167 0.461973 19.0015 1.18887C19.5864 1.91577 19.9036 2.88386 19.8844 3.88333V28.3333C19.8829 28.6242 19.8166 28.9095 19.692 29.161C19.5674 29.4124 19.3889 29.6212 19.1743 29.7667C18.9584 29.913 18.7135 29.99 18.4642 29.99C18.2149 29.99 17.9699 29.913 17.754 29.7667L9.70118 24.4167L2.13121 29.75C1.91754 29.9056 1.67248 29.9919 1.42108 30Z" fill="#FF9136"/>
</svg>
