<svg width="30" height="30" viewBox="0 0 30 30" fill="none" xmlns="http://www.w3.org/2000/svg">
<path d="M15 30C14.8026 30.0013 14.6069 29.9568 14.4242 29.869C14.2415 29.7812 14.0753 29.6517 13.9351 29.4882L2.2817 15.7584C0.819938 14.0204 0 11.674 0 9.22883C0 6.78364 0.819938 4.43721 2.2817 2.69924C3.7549 0.970683 5.75048 0 7.83096 0C9.91143 0 11.907 0.970683 13.3802 2.69924L15 4.60517L16.6198 2.69924C18.093 0.970683 20.0886 0 22.169 0C24.2495 0 26.2451 0.970683 27.7183 2.69924C29.1801 4.43721 30 6.78364 30 9.22883C30 11.674 29.1801 14.0204 27.7183 15.7584L16.0649 29.4882C15.9247 29.6517 15.7585 29.7812 15.5758 29.869C15.3931 29.9568 15.1974 30.0013 15 30Z" fill="#FF0000"/>
</svg>
