<svg width="30" height="30" viewBox="0 0 30 30" fill="none" xmlns="http://www.w3.org/2000/svg">
<path d="M11.518 4.18036C10.7892 3.61813 9.74259 3.75318 9.18036 4.48199C8.61813 5.21081 8.75318 6.25741 9.48199 6.81964L19.5263 14.5681L9.41535 23.2346C8.71647 23.8336 8.63554 24.8858 9.23457 25.5847C9.83361 26.2835 10.8858 26.3645 11.5847 25.7654L22.3179 16.5655C23.6019 15.4649 23.5503 13.4624 22.2112 12.4294L11.518 4.18036Z" fill="#3C3C3C"/>
<path fill-rule="evenodd" clip-rule="evenodd" d="M30 15C30 23.2843 23.2843 30 15 30C6.71573 30 0 23.2843 0 15C0 6.71573 6.71573 0 15 0C23.2843 0 30 6.71573 30 15ZM29.5 15C29.5 23.0081 23.0081 29.5 15 29.5C6.99187 29.5 0.5 23.0081 0.5 15C0.5 6.99187 6.99187 0.5 15 0.5C23.0081 0.5 29.5 6.99187 29.5 15Z" fill="#3C3C3C"/>
</svg>
