<svg width="30" height="30" viewBox="0 0 30 30" fill="none" xmlns="http://www.w3.org/2000/svg">
<path d="M18.482 4.18036C19.2108 3.61813 20.2574 3.75318 20.8196 4.48199C21.3819 5.21081 21.2468 6.25741 20.518 6.81964L10.4737 14.5681L20.5847 23.2346C21.2835 23.8336 21.3645 24.8858 20.7654 25.5847C20.1664 26.2835 19.1142 26.3645 18.4153 25.7654L7.68213 16.5655C6.39809 15.4649 6.44973 13.4624 7.78877 12.4294L18.482 4.18036Z" fill="#3C3C3C"/>
<path fill-rule="evenodd" clip-rule="evenodd" d="M0 15C0 23.2843 6.71573 30 15 30C23.2843 30 30 23.2843 30 15C30 6.71573 23.2843 0 15 0C6.71573 0 0 6.71573 0 15ZM0.5 15C0.5 23.0081 6.99187 29.5 15 29.5C23.0081 29.5 29.5 23.0081 29.5 15C29.5 6.99187 23.0081 0.5 15 0.5C6.99187 0.5 0.5 6.99187 0.5 15Z" fill="#3C3C3C"/>
</svg>
